PathFileType	4	(X/Y/Z)
DataRate	CameraRate	NumFrames	NumMarkers	Units	OrigDataRate	OrigDataStartFrame	OrigNumFrames	
	120.0	120.0	4	39	mm	120.0	145	231
Frame#	Time	midhip	hip_r	hip_l	knee_r	knee_l	ankle_r	ankle_l	midasis	asis_r	asis_l	psis_r	psis_l	epicondLat_r	epicondLat_l	epicondMed_r	epicondMed_l	malleolusLat_r	malleolusLat_l	malleolusMedv_r	malleolusMedv_l	heel_r	heel_l	sternalnotch	xyphoidprocess	neck	subclavicle_r	subclavicle_l	toe_r	toe_l	thighwand_r	thighwand_l	upperleg1_r	upperleg1_l	upperleg2_r	upperleg2_l	shankwand_r	shankwand_l	lowerleg1_r	lowerleg1_l
	X1	Y1	Z1	X2	Y2	Z2	X3	Y3	Z3	X4	Y4	Z4	X5	Y5	Z5	X6	Y6	Z6	X7	Y7	Z7	X8	Y8	Z8	X9	Y9	Z9	X10	Y10	Z10	X11	Y11	Z11	X12	Y12	Z12	X13	Y13	Z13	X14	Y14	Z14	X15	Y15	Z15	X16	Y16	Z16	X17	Y17	Z17	X18	Y18	Z18	X19	Y19	Z19	X20	Y20	Z20	X21	Y21	Z21	X22	Y22	Z22	X23	Y23	Z23	X24	Y24	Z24	X25	Y25	Z25	X26	Y26	Z26	X27	Y27	Z27	X28	Y28	Z28	X29	Y29	Z29	X30	Y30	Z30	X31	Y31	Z31	X32	Y32	Z32	X33	Y33	Z33	X34	Y34	Z34	X35	Y35	Z35	X36	Y36	Z36	X37	Y37	Z37	X38	Y38	Z38	X39	Y39	Z39

	145	1.20833	1451.851	835.573	-243.163	1466.048	837.515	-186.202	1437.653	833.631	-300.124	1446.324	460.484	-166.793	1434.695	465.410	-341.895	1419.775	63.211	-170.783	1415.807	65.695	-357.937	1523.119	904.249	-257.123	1538.940	907.881	-158.491	1507.298	900.618	-355.756	1379.147	958.329	-215.491	1371.703	957.989	-269.874	1461.400	462.417	-113.935	1439.675	471.488	-395.826	1429.245	456.355	-220.147	1428.587	453.720	-286.718	1410.306	63.469	-133.466	1409.138	67.530	-395.811	1442.389	77.637	-198.167	1438.709	76.566	-335.144	1373.299	42.547	-165.972	1369.340	48.828	-345.219	1489.346	1301.385	-272.284	1569.128	1145.680	-262.533	1402.231	1346.216	-261.267	1507.532	1297.241	-212.913	1502.520	1288.676	-321.305	1533.270	41.071	-125.204	1531.580	39.027	-408.713	1593.392	625.132	-196.787	1570.029	630.241	-319.530	1527.292	680.090	-142.566	1497.929	676.485	-373.530	1514.431	594.954	-137.856	1496.477	588.455	-371.583	1413.461	185.592	-60.054	1362.119	187.376	-445.640	1417.226	192.580	-101.617	1381.918	191.533	-407.589
	146	1.21667	1451.142	835.522	-242.117	1465.807	837.652	-185.281	1436.478	833.392	-298.953	1446.228	460.585	-166.731	1434.177	465.289	-341.798	1419.704	63.224	-170.766	1415.902	65.673	-358.005	1522.563	903.857	-256.947	1539.163	907.841	-158.648	1505.962	899.873	-355.246	1379.195	958.392	-215.331	1371.723	958.044	-269.700	1461.354	462.400	-113.883	1438.929	471.536	-395.730	1430.776	455.321	-218.217	1427.540	454.044	-286.352	1410.274	63.475	-133.440	1409.074	67.520	-395.850	1442.368	77.687	-198.130	1438.696	76.606	-335.204	1373.311	42.536	-165.915	1369.314	48.771	-345.217	1489.394	1301.478	-272.115	1569.356	1145.875	-262.224	1402.261	1346.171	-261.188	1507.461	1297.347	-212.719	1502.687	1288.795	-321.098	1533.263	41.075	-125.203	1531.536	39.027	-408.773	1593.220	625.142	-197.295	1569.785	630.190	-319.844	1527.336	680.183	-142.793	1497.551	676.476	-373.580	1515.452	595.435	-137.546	1495.678	588.378	-371.591	1413.491	185.586	-60.008	1361.950	187.314	-445.613	1417.225	192.600	-101.553	1381.603	191.509	-407.550
	147	1.22500	1450.666	835.497	-241.431	1465.613	837.742	-184.673	1435.719	833.252	-298.189	1446.127	460.658	-166.682	1433.702	465.240	-341.666	1419.623	63.238	-170.750	1415.994	65.669	-358.066	1522.200	903.595	-256.796	1539.271	907.797	-158.693	1505.128	899.393	-354.899	1379.259	958.455	-215.173	1371.745	958.091	-269.533	1461.302	462.395	-113.846	1438.226	471.587	-395.605	1432.512	454.086	-216.696	1424.355	454.903	-285.771	1410.230	63.482	-133.415	1409.010	67.530	-395.882	1442.325	77.734	-198.107	1438.697	76.661	-335.267	1373.319	42.523	-165.869	1369.288	48.740	-345.219	1489.502	1301.587	-271.953	1569.721	1146.120	-261.981	1402.271	1346.135	-261.103	1507.499	1297.477	-212.539	1502.881	1288.935	-320.916	1533.252	41.080	-125.201	1531.494	39.030	-408.825	1592.966	625.151	-197.856	1569.569	630.145	-320.125	1527.156	680.287	-143.314	1497.188	676.441	-373.606	1516.290	595.727	-137.512	1493.930	587.886	-371.564	1413.511	185.587	-59.971	1361.796	187.260	-445.592	1417.235	192.609	-101.515	1381.240	191.471	-407.519
	148	1.23333	1450.603	835.500	-241.321	1465.592	837.747	-184.575	1435.613	833.252	-298.068	1446.039	460.688	-166.651	1433.275	465.289	-341.516	1419.547	63.247	-170.733	1416.072	65.677	-358.120	1522.177	903.540	-256.754	1539.319	907.752	-158.681	1505.034	899.328	-354.827	1379.337	958.511	-215.025	1371.775	958.138	-269.385	1461.259	462.410	-113.827	1437.591	471.632	-395.473	1433.192	453.445	-215.995	1427.144	453.970	-286.184	1410.187	63.488	-133.389	1408.948	67.554	-395.908	1442.264	77.790	-198.091	1438.681	76.744	-335.319	1373.328	42.505	-165.833	1369.256	48.731	-345.226	1489.632	1301.698	-271.793	1570.117	1146.373	-261.759	1402.276	1346.101	-261.018	1507.543	1297.597	-212.354	1503.112	1289.091	-320.740	1533.238	41.083	-125.196	1531.454	39.032	-408.869	1592.656	625.160	-198.426	1569.348	630.082	-320.318	1526.938	680.414	-143.916	1496.829	676.381	-373.586	1516.559	595.866	-137.740	1494.896	588.390	-371.681	1413.519	185.594	-59.940	1361.483	187.240	-445.526	1417.243	192.611	-101.494	1380.870	191.459	-407.489
